<svg width="32" height="32" viewBox="0 0 32 32" fill="none" xmlns="http://www.w3.org/2000/svg">
<g id="clarity:eye-hide-line" clip-path="url(#clip0_64_107)">
<path id="Vector" d="M22.3911 18.1333C22.6464 17.4512 22.7759 16.7284 22.7733 16C22.7733 14.3828 22.1309 12.8318 20.9873 11.6882C19.8438 10.5447 18.2928 9.90222 16.6755 9.90222C15.9562 9.90306 15.2427 10.0325 14.5689 10.2844L16 11.76C16.2175 11.7252 16.4375 11.7074 16.6578 11.7067C17.8013 11.7043 18.8993 12.1544 19.712 12.9588C20.5247 13.7632 20.9862 14.8565 20.9955 16C20.9948 16.2203 20.977 16.4402 20.9422 16.6578L22.3911 18.1333Z" fill="#1C1D1E" fill-opacity="0.94"/>
<path id="Vector_2" d="M30.48 15.5822C27.4845 10.0444 22.2311 6.69333 16.4178 6.69333C14.835 6.69704 13.2628 6.95207 11.76 7.44888L13.1911 8.88888C14.2452 8.61647 15.3291 8.47613 16.4178 8.47111C21.4222 8.47111 25.9733 11.2622 28.6845 15.9644C27.6899 17.709 26.3715 19.2476 24.8 20.4978L26.0622 21.76C27.881 20.2927 29.3914 18.4802 30.5067 16.4267L30.7378 16L30.48 15.5822Z" fill="#1C1D1E" fill-opacity="0.94"/>
<path id="Vector_3" d="M4.3289 5.13777L8.29335 9.10221C5.7875 10.7156 3.73948 12.9473 2.34668 15.5822L2.11557 16L2.34668 16.4267C5.34224 21.9644 10.5956 25.3155 16.4089 25.3155C18.6779 25.3151 20.9175 24.8015 22.96 23.8133L27.4045 28.2578L28.96 26.9244L5.8489 3.81332L4.3289 5.13777ZM12.9956 13.8044L18.9067 19.7155C18.2388 20.129 17.4699 20.3504 16.6845 20.3555C16.1137 20.3556 15.5486 20.2427 15.0217 20.0235C14.4947 19.8043 14.0163 19.483 13.614 19.0782C13.2117 18.6734 12.8934 18.1931 12.6774 17.6648C12.4614 17.1365 12.3521 16.5707 12.3556 16C12.3656 15.2236 12.5868 14.4646 12.9956 13.8044ZM11.7067 12.5155C10.8751 13.6883 10.4853 15.1176 10.6063 16.5502C10.7274 17.9828 11.3515 19.3264 12.3681 20.343C13.3847 21.3596 14.7283 21.9837 16.1609 22.1048C17.5935 22.2258 19.0228 21.8361 20.1956 21.0044L21.6178 22.4267C19.9714 23.1304 18.1994 23.4933 16.4089 23.4933C11.4045 23.4933 6.85335 20.7022 4.14224 16C5.44331 13.6962 7.3171 11.7673 9.58224 10.4L11.7067 12.5155Z" fill="#1C1D1E" fill-opacity="0.94"/>
</g>
<defs>
<clipPath id="clip0_64_107">
<rect width="32" height="32" fill="white"/>
</clipPath>
</defs>
</svg>
