<svg width="22" height="25" viewBox="0 0 22 25" fill="none" xmlns="http://www.w3.org/2000/svg">
<g id="piggy-bank--institution-saving-bank-payment-finance">
<path id="Vector 2206" d="M1 4.32646C1.40837 5.59504 2.18465 6.55522 2.97709 7.23502" stroke="#1C1D1E" stroke-opacity="0.94" stroke-width="1.71429" stroke-linecap="round" stroke-linejoin="round"/>
<path id="Vector 2207" d="M10.4224 8.46996H7.43689" stroke="#1C1D1E" stroke-opacity="0.94" stroke-width="1.71429" stroke-linecap="round" stroke-linejoin="round"/>
<g id="Group 4470">
<path id="Ellipse 1" d="M15.3842 11.2716C15.1619 11.2716 14.9818 11.0628 14.9818 10.8052C14.9818 10.5476 15.1619 10.3388 15.3842 10.3388" stroke="#1C1D1E" stroke-opacity="0.94" stroke-width="1.71429" stroke-linecap="round" stroke-linejoin="round"/>
<path id="Ellipse 2" d="M15.3842 11.2716C15.6064 11.2716 15.7865 11.0628 15.7865 10.8052C15.7865 10.5476 15.6064 10.3388 15.3842 10.3388" stroke="#1C1D1E" stroke-opacity="0.94" stroke-width="1.71429" stroke-linecap="round" stroke-linejoin="round"/>
</g>
<path id="Vector 2208" d="M16.6244 1.70595V5.57544C19.139 6.78998 19.5917 8.8625 19.5917 11.5707L21 12.9116V17.051C20.17 19.1208 18.6361 20.1993 16.6244 21.0254V22.8617C16.6244 23.377 16.2641 23.7946 15.8197 23.7946H13.0033C12.5589 23.7946 12.1986 23.377 12.1986 22.8617V21.0254H7.14395V22.716C7.14395 23.2313 6.78367 23.6489 6.33924 23.6489H3.49752C3.05305 23.6489 2.69274 23.2323 2.69279 22.717C2.6929 21.5868 2.69302 19.7862 2.69269 19.4122C2.69261 19.3254 2.54443 18.8487 2.35315 18.1103C1.79302 15.9477 0.863272 12.2981 2.20051 8.8625C3.32156 5.98236 6.03581 3.78525 11.8966 4.16642C12.7382 1.5894 14.9645 0.916776 16.1014 0.976337C16.425 0.99329 16.6244 1.33047 16.6244 1.70595Z" stroke="#1C1D1E" stroke-opacity="0.94" stroke-width="1.71429" stroke-linecap="round" stroke-linejoin="round"/>
</g>
</svg>
