<svg width="16" height="16" viewBox="0 0 16 16" fill="none" xmlns="http://www.w3.org/2000/svg">
<path d="M2.66667 5.33333C3.03486 5.33333 3.33333 5.03486 3.33333 4.66667C3.33333 4.29848 3.03486 4 2.66667 4C2.29848 4 2 4.29848 2 4.66667C2 5.03486 2.29848 5.33333 2.66667 5.33333Z" fill="#231F20"/>
<path d="M2.66667 8.66668C3.03486 8.66668 3.33333 8.3682 3.33333 8.00001C3.33333 7.63182 3.03486 7.33334 2.66667 7.33334C2.29848 7.33334 2 7.63182 2 8.00001C2 8.3682 2.29848 8.66668 2.66667 8.66668Z" fill="#231F20"/>
<path d="M2.66667 12C3.03486 12 3.33333 11.7015 3.33333 11.3333C3.33333 10.9651 3.03486 10.6667 2.66667 10.6667C2.29848 10.6667 2 10.9651 2 11.3333C2 11.7015 2.29848 12 2.66667 12Z" fill="#231F20"/>
<path d="M13.3733 7.33334H5.29332C4.94722 7.33334 4.66666 7.61391 4.66666 7.96001V8.04001C4.66666 8.38611 4.94722 8.66668 5.29332 8.66668H13.3733C13.7194 8.66668 14 8.38611 14 8.04001V7.96001C14 7.61391 13.7194 7.33334 13.3733 7.33334Z" fill="#231F20"/>
<path d="M13.3733 10.6667H5.29332C4.94722 10.6667 4.66666 10.9472 4.66666 11.2933V11.3733C4.66666 11.7194 4.94722 12 5.29332 12H13.3733C13.7194 12 14 11.7194 14 11.3733V11.2933C14 10.9472 13.7194 10.6667 13.3733 10.6667Z" fill="#231F20"/>
<path d="M13.3733 4H5.29332C4.94722 4 4.66666 4.28057 4.66666 4.62667V4.70667C4.66666 5.05277 4.94722 5.33333 5.29332 5.33333H13.3733C13.7194 5.33333 14 5.05277 14 4.70667V4.62667C14 4.28057 13.7194 4 13.3733 4Z" fill="#231F20"/>
</svg>
