<svg width="22" height="26" viewBox="0 0 22 26" fill="none" xmlns="http://www.w3.org/2000/svg">
<g id="desktop-game--controller-display-device-computer-games-leisure">
<path id="Vector" d="M1.76923 1.41336H20.2308C20.6923 1.41336 21 1.81026 21 2.40562V18.2816C21 18.877 20.6923 19.2739 20.2308 19.2739H1.76923C1.30769 19.2739 1 18.877 1 18.2816V2.40562C1 1.81026 1.30769 1.41336 1.76923 1.41336Z" stroke="black" stroke-width="1.71429" stroke-linecap="round" stroke-linejoin="round"/>
<path id="Vector_2" d="M9.46144 19.2739L7.92297 24.2351" stroke="black" stroke-width="1.71429" stroke-linecap="round" stroke-linejoin="round"/>
<path id="Vector_3" d="M12.5385 19.2739L14.0769 24.2351" stroke="black" stroke-width="1.71429" stroke-linecap="round" stroke-linejoin="round"/>
<path id="Vector_4" d="M6.38464 24.2351H15.6154" stroke="black" stroke-width="1.71429" stroke-linecap="round" stroke-linejoin="round"/>
<path id="Vector_5" d="M4.84619 10.3436H9.46158" stroke="black" stroke-width="1.71429" stroke-linecap="round" stroke-linejoin="round"/>
<path id="Vector_6" d="M7.15393 7.36687V13.3204" stroke="black" stroke-width="1.71429" stroke-linecap="round" stroke-linejoin="round"/>
<g id="Group 623">
<path id="Vector_7" d="M16.8462 9.4507C16.6337 9.4507 16.4615 9.22857 16.4615 8.95457C16.4615 8.68057 16.6337 8.45845 16.8462 8.45845" stroke="black" stroke-width="1.71429" stroke-linecap="round" stroke-linejoin="round"/>
<path id="Vector_8" d="M16.8461 9.4507C17.0586 9.4507 17.2307 9.22857 17.2307 8.95457C17.2307 8.68057 17.0586 8.45845 16.8461 8.45845" stroke="black" stroke-width="1.71429" stroke-linecap="round" stroke-linejoin="round"/>
</g>
<g id="Group 625">
<path id="Vector_9" d="M14.0769 12.2288C13.8645 12.2288 13.6923 12.0067 13.6923 11.7327C13.6923 11.4587 13.8645 11.2365 14.0769 11.2365" stroke="black" stroke-width="1.71429" stroke-linecap="round" stroke-linejoin="round"/>
<path id="Vector_10" d="M14.0769 12.2288C14.2893 12.2288 14.4615 12.0067 14.4615 11.7327C14.4615 11.4587 14.2893 11.2365 14.0769 11.2365" stroke="black" stroke-width="1.71429" stroke-linecap="round" stroke-linejoin="round"/>
</g>
</g>
</svg>
