<svg width="22" height="26" viewBox="0 0 22 26" fill="none" xmlns="http://www.w3.org/2000/svg">
<g id="bag-dollar--bag-payment-cash-money-finance">
<path id="Vector" d="M11 24.5743C16.8333 24.5743 21 22.4007 21 17.5629C21 12.3045 18.5 8.79882 13.5 6.16959L15.4667 3.50529C15.5666 3.33049 15.6208 3.13101 15.6237 2.92707C15.6267 2.72313 15.5784 2.522 15.4836 2.34405C15.3889 2.16609 15.2511 2.01765 15.0842 1.91376C14.9173 1.80987 14.7273 1.75422 14.5333 1.75247H7.46667C7.27273 1.75422 7.0827 1.80987 6.91582 1.91376C6.74892 2.01765 6.61112 2.16609 6.51637 2.34405C6.4216 2.522 6.37327 2.72313 6.37625 2.92707C6.37923 3.13101 6.43342 3.33049 6.53333 3.50529L8.5 6.18711C3.5 8.83388 1 12.3395 1 17.598C1 22.4007 5.16667 24.5743 11 24.5743Z" stroke="#1C1D1E" stroke-opacity="0.94" stroke-width="1.71429" stroke-linecap="round" stroke-linejoin="round"/>
<path id="Vector 3" d="M13.3046 12.8223C13.2254 12.5861 13.103 12.3713 12.9476 12.1884C12.617 11.7993 12.1366 11.5544 11.6018 11.5544H10.2042C9.31411 11.5544 8.59253 12.3145 8.59253 13.2521C8.59253 14.0498 9.11991 14.74 9.85983 14.9105L11.9876 15.4007C12.8166 15.5917 13.4074 16.3655 13.4074 17.2592C13.4074 18.3096 12.599 19.1618 11.6018 19.1618H10.3981C9.61195 19.1618 8.94315 18.6325 8.69528 17.8938" stroke="#1C1D1E" stroke-opacity="0.94" stroke-width="1.71429" stroke-linecap="round" stroke-linejoin="round"/>
<path id="Vector 2489" d="M11 11.5542V9.65233" stroke="#1C1D1E" stroke-opacity="0.94" stroke-width="1.71429" stroke-linecap="round" stroke-linejoin="round"/>
<path id="Vector 2490" d="M11 21.0634V19.1615" stroke="#1C1D1E" stroke-opacity="0.94" stroke-width="1.71429" stroke-linecap="round" stroke-linejoin="round"/>
</g>
</svg>
